<svg width="127" height="33" viewBox="0 0 127 33" fill="none" xmlns="http://www.w3.org/2000/svg">
<mask id="mask0_9_4226" style="mask-type:alpha" maskUnits="userSpaceOnUse" x="0" y="0" width="127" height="33">
<rect width="127" height="32.3567" fill="#D9D9D9"/>
</mask>
<g mask="url(#mask0_9_4226)">
<path d="M81.5291 14.3904C81.5291 14.6462 81.7396 14.8626 82.1605 15.0396C82.6015 15.197 83.2629 15.3741 84.1448 15.5708C84.7461 15.6889 85.2973 15.8462 85.7984 16.043C86.3195 16.22 86.8307 16.4856 87.3317 16.8397C87.8529 17.1742 88.2537 17.6463 88.5344 18.2562C88.835 18.8464 88.9853 19.5251 88.9853 20.2924C88.9853 22.004 88.3439 23.2532 87.0612 24.0402C85.7583 24.8468 84.235 25.2501 82.4912 25.2501C79.1239 25.2501 76.879 24.0795 75.7566 21.7384L80.1161 19.5842C80.4969 20.6662 81.2786 21.2072 82.4612 21.2072C83.3631 21.2072 83.8141 20.9416 83.8141 20.4104C83.8141 20.1547 83.6036 19.9481 83.1827 19.7907C82.7819 19.6137 82.1304 19.4169 81.2285 19.2005C80.6272 19.0825 80.076 18.9251 79.5749 18.7284C79.0938 18.512 78.5928 18.2365 78.0716 17.9021C77.5705 17.5677 77.1797 17.125 76.8991 16.5742C76.6185 16.0036 76.4782 15.3544 76.4782 14.6265C76.4782 13.0526 77.0694 11.8329 78.252 10.9673C79.4346 10.1017 80.8577 9.66885 82.5213 9.66885C85.4677 9.66885 87.5322 10.8099 88.7147 13.092L84.5056 14.9511C84.0646 14.1052 83.4433 13.6822 82.6416 13.6822C81.8999 13.6822 81.5291 13.9183 81.5291 14.3904Z" fill="white"/>
<path d="M74.9822 19.2596H64.6096C65.1107 20.4596 66.2332 21.0597 67.977 21.0597C69.0393 21.0597 69.9513 20.7154 70.7129 20.0268L74.3207 22.5056C72.8576 24.3352 70.7029 25.2501 67.8567 25.2501C65.3112 25.2501 63.2667 24.5221 61.7234 23.0663C60.2001 21.5908 59.4384 19.7317 59.4384 17.489C59.4384 15.2659 60.19 13.4068 61.6933 11.9116C63.1966 10.4164 65.1107 9.66885 67.4358 9.66885C69.6807 9.66885 71.5347 10.4066 72.9979 11.8821C74.4611 13.3379 75.1926 15.1872 75.1926 17.4299C75.1926 18.1185 75.1225 18.7284 74.9822 19.2596ZM64.5495 15.8659H70.3221C69.9412 14.4888 68.9992 13.8002 67.4959 13.8002C65.9526 13.8002 64.9704 14.4888 64.5495 15.8659Z" fill="white"/>
<path d="M56.8305 8.04579C56.2693 8.59664 55.5978 8.87207 54.8161 8.87207C54.0344 8.87207 53.3529 8.59664 52.7717 8.04579C52.2104 7.47527 51.9298 6.80638 51.9298 6.03912C51.9298 5.27186 52.2104 4.61281 52.7717 4.06196C53.3529 3.51111 54.0344 3.23568 54.8161 3.23568C55.5978 3.23568 56.2693 3.51111 56.8305 4.06196C57.4117 4.61281 57.7024 5.27186 57.7024 6.03912C57.7024 6.80638 57.4117 7.47527 56.8305 8.04579ZM57.3115 24.8369H52.3207V10.082H57.3115V24.8369Z" fill="white"/>
<path d="M45.6164 17.4595L50.8778 24.8369H45.2856L41.0164 18.5513V24.8369H36.0255V4.18003H41.0164V16.2496L44.8948 10.082H50.6673L45.6164 17.4595Z" fill="white"/>
<path d="M25.8031 25.2501C23.5582 25.2501 21.6641 24.5025 20.1208 23.0073C18.5574 21.5121 17.7757 19.6629 17.7757 17.4595C17.7757 15.2954 18.5574 13.456 20.1208 11.9411C21.7042 10.4263 23.5983 9.66885 25.8031 9.66885C28.048 9.66885 29.9421 10.4263 31.4855 11.9411C33.0489 13.456 33.8305 15.2954 33.8305 17.4595C33.8305 19.6629 33.0489 21.5121 31.4855 23.0073C29.9621 24.5025 28.068 25.2501 25.8031 25.2501ZM25.8031 20.5285C26.685 20.5285 27.4066 20.2432 27.9678 19.6727C28.5491 19.1022 28.8397 18.3644 28.8397 17.4595C28.8397 16.5545 28.5491 15.8167 27.9678 15.2462C27.4066 14.6757 26.685 14.3904 25.8031 14.3904C24.9412 14.3904 24.2197 14.6855 23.6384 15.2757C23.0772 15.8462 22.7966 16.5742 22.7966 17.4595C22.7966 18.3447 23.0772 19.0825 23.6384 19.6727C24.2197 20.2432 24.9412 20.5285 25.8031 20.5285Z" fill="white"/>
<path d="M9.26012 9.66885C11.2645 9.66885 12.9381 10.4164 14.281 11.9116C15.644 13.4068 16.3255 15.2561 16.3255 17.4595C16.3255 19.6629 15.644 21.522 14.281 23.0368C12.9181 24.5123 11.2444 25.2501 9.26012 25.2501C7.43615 25.2501 6.01306 24.6599 4.99084 23.4795V30.7389H0V10.082H4.99084V11.4394C6.01306 10.2591 7.43615 9.66885 9.26012 9.66885ZM5.86274 19.7907C6.444 20.3809 7.20565 20.676 8.1477 20.676C9.08975 20.676 9.8514 20.3809 10.4327 19.7907C11.0139 19.1809 11.3046 18.4038 11.3046 17.4595C11.3046 16.5151 11.0139 15.738 10.4327 15.1282C9.8514 14.538 9.08975 14.2429 8.1477 14.2429C7.20565 14.2429 6.444 14.538 5.86274 15.1282C5.28147 15.738 4.99084 16.5151 4.99084 17.4595C4.99084 18.4038 5.28147 19.1809 5.86274 19.7907Z" fill="white"/>
<g filter="url(#filter0_f_9_4226)">
<path d="M122.218 16.8692H124.323V21.6793H122.218V24.8369H116.867V21.6793H107.636V16.8692L113.92 4.18001H119.873L113.529 16.8692H116.867V13.151H122.218V16.8692Z" fill="url(#paint0_linear_9_4226)"/>
</g>
<g filter="url(#filter1_f_9_4226)">
<path d="M106.371 24.8369H91.6392V21.0006L98.6143 13.7707C99.376 12.9641 99.8971 12.3444 100.178 11.9116C100.478 11.4591 100.629 11.0165 100.629 10.5836C100.629 10.0525 100.458 9.63933 100.118 9.34423C99.7969 9.02946 99.3459 8.87207 98.7646 8.87207C97.5019 8.87207 96.5598 9.59014 95.9385 11.0263L91.3084 8.48844C91.9699 6.9736 92.952 5.80305 94.2548 4.97677C95.5777 4.15049 97.0609 3.73736 98.7045 3.73736C100.709 3.73736 102.423 4.32755 103.846 5.50795C105.289 6.66867 106.01 8.2622 106.01 10.2885C106.01 11.4296 105.74 12.5116 105.199 13.5346C104.657 14.538 103.806 15.6298 102.643 16.8102L99.7869 19.7317H106.371V24.8369Z" fill="url(#paint1_linear_9_4226)"/>
</g>
<path d="M122.218 16.8692H124.323V21.6793H122.218V24.8369H116.867V21.6793H107.636V16.8692L113.92 4.18001H119.873L113.529 16.8692H116.867V13.151H122.218V16.8692Z" fill="url(#paint2_linear_9_4226)"/>
<path d="M106.371 24.8369H91.6392V21.0006L98.6143 13.7707C99.376 12.9641 99.8971 12.3444 100.178 11.9116C100.478 11.4591 100.629 11.0165 100.629 10.5836C100.629 10.0525 100.458 9.63933 100.118 9.34423C99.7969 9.02946 99.3459 8.87207 98.7646 8.87207C97.5019 8.87207 96.5598 9.59014 95.9385 11.0263L91.3084 8.48844C91.9699 6.9736 92.952 5.80305 94.2548 4.97677C95.5777 4.15049 97.0609 3.73736 98.7045 3.73736C100.709 3.73736 102.423 4.32755 103.846 5.50795C105.289 6.66867 106.01 8.2622 106.01 10.2885C106.01 11.4296 105.74 12.5116 105.199 13.5346C104.657 14.538 103.806 15.6298 102.643 16.8102L99.7869 19.7317H106.371V24.8369Z" fill="url(#paint3_linear_9_4226)"/>
<path fill-rule="evenodd" clip-rule="evenodd" d="M122.218 16.8692V13.151H116.866V16.8692H113.529L119.873 4.18H113.92L107.636 16.8692V21.6793H116.866V24.8369H122.218V21.6793H124.323V16.8692H122.218ZM122.469 21.9253H124.573V16.6233H122.469V12.9051H116.616V16.6233H113.931L120.275 3.93408H113.763L107.386 16.8126V21.9253H116.616V25.0828H122.469V21.9253Z" fill="#FFD700"/>
<path fill-rule="evenodd" clip-rule="evenodd" d="M106.622 25.0828H91.3885V20.9026L98.4305 13.6035C98.4308 13.6032 98.4311 13.6029 98.4314 13.6026C99.1912 12.7979 99.6987 12.1922 99.9663 11.7795L99.9678 11.7772C100.248 11.3548 100.378 10.9581 100.378 10.5836C100.378 10.1083 100.228 9.76809 99.9517 9.52862L99.9459 9.52354L99.9404 9.51811C99.6789 9.26148 99.299 9.11798 98.7646 9.11798C98.1854 9.11798 97.689 9.28136 97.2647 9.60484C96.8368 9.931 96.4684 10.4305 96.169 11.1224L96.06 11.3745L90.9892 8.59515L91.0781 8.39156C91.7575 6.83566 92.7706 5.62523 94.1188 4.77021L94.1203 4.76929C95.4853 3.91666 97.0156 3.49143 98.7044 3.49143C100.762 3.49143 102.534 4.09885 104.006 5.3189C105.513 6.53159 106.261 8.19807 106.261 10.2885C106.261 11.4694 105.98 12.5903 105.421 13.6479L105.42 13.6497C104.864 14.6803 103.995 15.7907 102.823 16.981C102.823 16.981 102.823 16.9809 102.823 16.981L100.374 19.4858H106.622V25.0828ZM99.7868 19.7317L102.643 16.8102C103.806 15.6298 104.657 14.538 105.199 13.5346C105.74 12.5116 106.01 11.4296 106.01 10.2885C106.01 8.26219 105.289 6.66866 103.846 5.50794C102.423 4.32754 100.709 3.73735 98.7044 3.73735C97.0609 3.73735 95.5777 4.15049 94.2548 4.97676C92.9519 5.80304 91.9698 6.97359 91.3084 8.48843L95.9384 11.0263C95.9718 10.9491 96.0061 10.874 96.0414 10.801C96.6619 9.51505 97.5697 8.87206 98.7646 8.87206C99.3458 8.87206 99.7968 9.02945 100.118 9.34422C100.458 9.63932 100.629 10.0525 100.629 10.5836C100.629 11.0164 100.478 11.4591 100.178 11.9116C99.897 12.3444 99.3759 12.9641 98.6142 13.7707L91.6391 21.0006V24.8369H106.371V19.7317H99.7868Z" fill="#FFD700"/>
</g>
<defs>
<filter id="filter0_f_9_4226" x="106.019" y="2.56217" width="19.9219" height="23.8926" filterUnits="userSpaceOnUse" color-interpolation-filters="sRGB">
<feFlood flood-opacity="0" result="BackgroundImageFix"/>
<feBlend mode="normal" in="SourceGraphic" in2="BackgroundImageFix" result="shape"/>
<feGaussianBlur stdDeviation="0.808917" result="effect1_foregroundBlur_9_4226"/>
</filter>
<filter id="filter1_f_9_4226" x="89.6906" y="2.11952" width="18.2984" height="24.3352" filterUnits="userSpaceOnUse" color-interpolation-filters="sRGB">
<feFlood flood-opacity="0" result="BackgroundImageFix"/>
<feBlend mode="normal" in="SourceGraphic" in2="BackgroundImageFix" result="shape"/>
<feGaussianBlur stdDeviation="0.808917" result="effect1_foregroundBlur_9_4226"/>
</filter>
<linearGradient id="paint0_linear_9_4226" x1="107.794" y1="1.59789" x2="107.794" y2="24.8369" gradientUnits="userSpaceOnUse">
<stop stop-color="#FEDD5C"/>
<stop offset="1" stop-color="#FFD700"/>
</linearGradient>
<linearGradient id="paint1_linear_9_4226" x1="107.794" y1="1.59789" x2="107.794" y2="24.8369" gradientUnits="userSpaceOnUse">
<stop stop-color="#FFC400"/>
<stop offset="1" stop-color="#FFD700"/>
</linearGradient>
<linearGradient id="paint2_linear_9_4226" x1="107.794" y1="1.59789" x2="107.794" y2="24.8369" gradientUnits="userSpaceOnUse">
<stop stop-color="#FEDD5C"/>
<stop offset="1" stop-color="#FFD700"/>
</linearGradient>
<linearGradient id="paint3_linear_9_4226" x1="107.794" y1="1.59789" x2="107.794" y2="24.8369" gradientUnits="userSpaceOnUse">
<stop stop-color="#FFC400"/>
<stop offset="1" stop-color="#FFD700"/>
</linearGradient>
</defs>
</svg>
