<svg width="24" height="24" viewBox="0 0 24 24" fill="none" xmlns="http://www.w3.org/2000/svg">
<path d="M12.0001 14.5195C13.3919 14.5195 14.5201 13.3912 14.5201 11.9995C14.5201 10.6077 13.3919 9.47949 12.0001 9.47949C10.6083 9.47949 9.4801 10.6077 9.4801 11.9995C9.4801 13.3912 10.6083 14.5195 12.0001 14.5195Z" fill="#D4CBF2"/>
<path d="M12 0C5.37259 0 0 5.37259 0 12C0 18.6274 5.37259 24 12 24C18.6274 24 24 18.6274 24 12C24 5.37259 18.6274 0 12 0ZM19.414 15.0499C19.3564 16.1908 19.0358 17.3158 18.2044 18.1384C17.3649 18.9688 16.2346 19.2782 15.0827 19.3352H8.91734C7.76534 19.2782 6.63514 18.969 5.79566 18.1384C4.96421 17.3158 4.64366 16.1908 4.58606 15.0499V8.95008C4.64366 7.80922 4.96426 6.68419 5.79566 5.86157C6.63514 5.03117 7.76549 4.72176 8.91734 4.66478H15.0827C16.2347 4.72176 17.3649 5.03102 18.2043 5.86157C19.0358 6.68419 19.3563 7.80922 19.4139 8.95008L19.414 15.0499Z" fill="#D4CBF2"/>
<path d="M15.0047 6.05433C13.503 6.01314 10.4973 6.01314 8.99553 6.05433C8.21404 6.07578 7.3281 6.27033 6.7713 6.86505C6.19271 7.48324 5.97407 8.23012 5.95189 9.06565C5.91292 10.5321 5.95189 14.9337 5.95189 14.9337C5.97728 15.7692 6.19271 16.5162 6.7713 17.1344C7.3281 17.7293 8.21404 17.9236 8.99553 17.9451C10.4973 17.9863 13.503 17.9863 15.0047 17.9451C15.7862 17.9236 16.6722 17.7291 17.229 17.1344C17.8076 16.5162 18.0262 15.7693 18.0484 14.9337V9.06565C18.0262 8.23012 17.8076 7.48324 17.229 6.86505C16.672 6.27013 15.786 6.07578 15.0047 6.05433ZM11.9999 15.9057C11.2274 15.9057 10.4722 15.6766 9.82988 15.2474C9.18755 14.8182 8.6869 14.2082 8.39127 13.4945C8.09563 12.7807 8.01828 11.9954 8.16899 11.2377C8.31971 10.48 8.69172 9.78401 9.23798 9.23774C9.78425 8.69148 10.4802 8.31947 11.2379 8.16875C11.9956 8.01804 12.781 8.09539 13.4947 8.39103C14.2084 8.68666 14.8185 9.18731 15.2477 9.82964C15.6769 10.472 15.9059 11.2272 15.9059 11.9997C15.9059 13.0356 15.4944 14.0291 14.7619 14.7617C14.0294 15.4942 13.0359 15.9057 11.9999 15.9057ZM15.9225 8.89996C15.7681 8.89992 15.617 8.85407 15.4886 8.76821C15.3601 8.68235 15.26 8.56033 15.201 8.41758C15.1419 8.27483 15.1264 8.11776 15.1566 7.96624C15.1867 7.81471 15.2612 7.67553 15.3704 7.5663C15.4797 7.45706 15.6189 7.38268 15.7704 7.35255C15.9219 7.32243 16.079 7.33791 16.2217 7.39704C16.3645 7.45617 16.4865 7.5563 16.5723 7.68477C16.6581 7.81323 16.7039 7.96426 16.7039 8.11876C16.7039 8.22136 16.6837 8.32296 16.6445 8.41775C16.6052 8.51255 16.5476 8.59867 16.4751 8.67122C16.4025 8.74376 16.3164 8.8013 16.2216 8.84055C16.1268 8.87979 16.0252 8.89998 15.9225 8.89996Z" fill="#D4CBF2"/>
</svg>
