<svg width="15" height="15" viewBox="0 0 15 15" fill="none" xmlns="http://www.w3.org/2000/svg">
<g clip-path="url(#clip0_4635_11965)">
<path fill-rule="evenodd" clip-rule="evenodd" d="M12.75 5.51491C12.75 8.12254 8.90185 13.3902 7.79469 14.8518C7.72286 14.9455 7.61451 15 7.5 15C7.38548 15 7.27713 14.9455 7.20531 14.8518C6.09813 13.3902 2.25 8.12254 2.25 5.51491C2.25 2.46911 4.60051 0 7.5 0C10.3995 0 12.75 2.46911 12.75 5.51491ZM7.5 2.31179C6.01777 2.31179 4.81439 3.57589 4.81439 5.13291C4.81439 6.68993 6.01777 7.95402 7.5 7.95402C8.98222 7.95402 10.1856 6.68993 10.1856 5.13291C10.1856 3.57589 8.98222 2.31179 7.5 2.31179Z" fill="#D4CBF2"/>
</g>
<defs>
<clipPath id="clip0_4635_11965">
<rect width="15" height="15" fill="white"/>
</clipPath>
</defs>
</svg>
