<svg width="15" height="15" viewBox="0 0 15 15" fill="none" xmlns="http://www.w3.org/2000/svg">
<g clip-path="url(#clip0_4635_11972)">
<path d="M7.99896 9.83029L15 4.06041V3.01862C15 2.37142 14.4753 1.84674 13.8281 1.84674H1.17188C0.524678 1.84674 0 2.37142 0 3.01862V4.06041L7.00102 9.83026C7.29015 10.0686 7.70985 10.0685 7.99896 9.83029Z" fill="#D4CBF2"/>
<path d="M7.5 11.1803C7.05806 11.1803 6.61626 11.0318 6.2557 10.7346L0 5.57904V11.9812C0 12.6284 0.524678 13.1531 1.17188 13.1531H13.8281C14.4753 13.1531 15 12.6284 15 11.9812V5.57904L8.74427 10.7347C8.38383 11.0317 7.94186 11.1803 7.5 11.1803Z" fill="#D4CBF2"/>
</g>
<defs>
<clipPath id="clip0_4635_11972">
<rect width="15" height="15" fill="white"/>
</clipPath>
</defs>
</svg>
