<svg width="15" height="15" viewBox="0 0 15 15" fill="none" xmlns="http://www.w3.org/2000/svg">
<g clip-path="url(#clip0_4635_11981)">
<g clip-path="url(#clip1_4635_11981)">
<path d="M14.7685 1.49013C14.5851 1.26606 14.3107 1.14258 13.9956 1.14258C13.8242 1.14258 13.6428 1.17874 13.4563 1.24992L0.758993 6.09682C0.0851673 6.35397 -0.00558403 6.73986 0.000252423 6.94711C0.00608888 7.15425 0.118584 7.53442 0.805913 7.753C0.810033 7.75438 0.814153 7.75552 0.818273 7.75678L2.59897 8.26627L11.2713 3.83571C11.4873 3.72516 11.7521 3.81099 11.8626 4.02716C11.9493 4.19699 11.9145 4.39658 11.7909 4.52796L11.7913 4.5283L6.96945 9.65169L6.83189 10.2091L8.55376 11.5957L10.9398 13.517C10.9419 13.5186 10.944 13.5203 10.9461 13.5219C11.2087 13.7257 11.4955 13.8332 11.7755 13.8333C12.3227 13.8333 12.7584 13.4283 12.8853 12.8017L14.9657 2.52902C15.0492 2.11681 14.9791 1.74774 14.7685 1.49013Z" fill="#D4CBF2"/>
<path d="M6.14374 9.3292C6.16125 9.25813 6.1965 9.19039 6.25017 9.13328L9.41411 5.77136L3.54297 8.77085L4.87609 12.5834C4.95207 12.8006 5.06514 12.9856 5.20499 13.1303L6.14351 9.32909L6.14374 9.3292Z" fill="#D4CBF2"/>
<path d="M6.02344 13.4833C6.34032 13.4806 6.65172 13.347 6.92454 13.0958L7.89992 12.1976L6.59942 11.1505L6.02344 13.4833Z" fill="#D4CBF2"/>
</g>
</g>
<defs>
<clipPath id="clip0_4635_11981">
<rect width="15" height="15" fill="white"/>
</clipPath>
<clipPath id="clip1_4635_11981">
<rect width="15" height="15" fill="white"/>
</clipPath>
</defs>
</svg>
